# xmcd
#
# Track frame offsets:
#	150
#	14749
#	32482
#	49187
#	66990
#	82527
#	100794
#	118470
#	141395
#	154640
#	168256
#	182318
#	193454
#	209779
#	226138
#	243482
#	258586
#	272754
#	287455
#	288310
#	289025
#
# Disc length: 3859
#
# Revision: 2
# Processed by: cddbd v1.5.1PL0 Copyright (c) Steve Scherf et al.
# Submitted via: CDex 1.30Release
# Normalized: r1:DSETVAR1,TDELIM( - )
#
DISCID=390f1115
DTITLE=Various Artist - CDX Volume 297 - July 2002
DYEAR=2002
DGENRE=Country
TTITLE0=Dan Seals - Angel Eyes
TTITLE1=Kellie Coffey - At The End  Of The Day (single version)
TTITLE2=Jennifer Hanson - Beautiful Goodbye
TTITLE3=Shannon Lawson - Dream Your Way To Me
TTITLE4=Steve Holy - I'm Not Breakin' (radio edit)
TTITLE5=Brad Paisley - I Wish You'd Stay (single edit)
TTITLE6=Michael Peterson - Modern Man
TTITLE7=Mark McGuinn - More Beautiful Today
TTITLE8=Wayne Warner - My Piece of Heaven On Earth
TTITLE9=Trick Pony - On A Mission (album version)
TTITLE10=Joanna Janét - Seven Little Steps
TTITLE11=Elizabeth Cook - Stupid Things (album version)
TTITLE12=Nickel Creek - This Side
TTITLE13=Aaron Lines - You Can't Hide Beautiful (single edit)
TTITLE14=Jameson Clark - You Da Man
TTITLE15=Izak and West - Get Out Of My Eyes Teardrops
TTITLE16=KC Williams - 1-800-I'm A Fool
TTITLE17=Paul Evans - Build An Ark
TTITLE18=Barry Lee White - Radio Station Liner #1
TTITLE19=Barry Lee White - Radio Station Liner #2
TTITLE20=Barry Lee White - Radio Station Liner #3
EXTD=YEAR: 2002 ID3G:   2
EXTT0=
EXTT1=
EXTT2=
EXTT3=
EXTT4=
EXTT5=
EXTT6=
EXTT7=
EXTT8=
EXTT9=
EXTT10=
EXTT11=
EXTT12=
EXTT13=
EXTT14=
EXTT15=
EXTT16=
EXTT17=
EXTT18=
EXTT19=
EXTT20=
PLAYORDER=
